<svg width="300" height="150" viewBox="0 0 300 150" fill="none" xmlns="http://www.w3.org/2000/svg">
<path d="M0 -1.52588e-05H300V150H0V-1.52588e-05Z" fill="white"/>
<path fill-rule="evenodd" clip-rule="evenodd" d="M0 0.23254V10.132L10.132 -1.52588e-05H0.232555L0 0.23254ZM39.2326 -1.52588e-05L0 39.2325V49.132L49.132 -1.52588e-05H39.2326ZM80.2325 -1.52588e-05L0 80.2325V90.132L90.132 -1.52588e-05H80.2325ZM120.233 -1.52588e-05L0 120.233V130.132L130.132 -1.52588e-05H120.233ZM159.233 -1.52588e-05L9.23256 150H19.132L169.132 -1.52588e-05H159.233ZM200.233 -1.52588e-05L50.2325 150H60.132L210.132 -1.52588e-05H200.233ZM242.233 -1.52588e-05L92.2325 150H102.132L252.132 -1.52588e-05H242.233ZM283.233 -1.52588e-05L133.233 150H143.132L293.132 -1.52588e-05H283.233ZM300 23.2325L173.233 150H183.132L300 33.132V23.2325ZM300 61.2325L211.233 150H221.132L300 71.132V61.2325ZM300 100.233L250.233 150H260.132L300 110.132V100.233ZM300 139.233L289.233 150H299.132L300 149.132V139.233Z" fill="#8085FF"/>
<path fill-rule="evenodd" clip-rule="evenodd" d="M0 19.2325L19.2326 -1.52588e-05H29.132L0 29.132V19.2325ZM0 70.132V60.2325L60.2326 -1.52588e-05H70.132L0 70.132ZM0 110.132V100.233L100.233 -1.52588e-05H110.132L0 110.132ZM0 149.132V139.233L139.233 -1.52588e-05H149.132L0 149.132ZM40.132 150H30.2326L180.233 -1.52588e-05H190.132L40.132 150ZM82.132 150H72.2325L222.233 -1.52588e-05H232.132L82.132 150ZM123.132 150H113.233L263.233 -1.52588e-05H273.132L123.132 150ZM163.132 150H153.233L300 3.23253V13.132L163.132 150ZM201.132 150H191.233L300 41.2325V51.132L201.132 150ZM240.132 150H230.233L300 80.2325V90.132L240.132 150ZM279.132 150H269.233L300 119.233V129.132L279.132 150Z" fill="#FF8080"/>
<path d="M5 4.99998H295V145H5V4.99998Z" fill="white"/>
</svg>
